<svg width="24" height="24" viewBox="0 0 24 24" fill="none" xmlns="http://www.w3.org/2000/svg">
<path d="M5.00007 18.25C5.00007 18.6642 5.33586 19 5.75007 19L18.7501 19C19.1643 19 19.5001 18.6642 19.5001 18.25C19.5001 17.8358 19.1643 17.5 18.7501 17.5L5.75007 17.5C5.55034 17.4973 5.35799 17.5754 5.21674 17.7167C5.0755 17.8579 4.99735 18.0503 5.00007 18.25Z" fill="#FF0000"/>
<path d="M5.00007 12.7499C5.00007 13.1641 5.33586 13.4999 5.75007 13.4999L18.7501 13.4999C19.1643 13.4999 19.5001 13.1641 19.5001 12.7499C19.5001 12.3357 19.1643 11.9999 18.7501 11.9999L5.75007 11.9999C5.55034 11.9972 5.35799 12.0753 5.21674 12.2166C5.0755 12.3578 4.99735 12.5501 5.00007 12.7499Z" fill="#FF0000"/>
<path d="M5.00007 7.24975C5.00007 7.66397 5.33586 7.99976 5.75007 7.99976L18.7501 7.99976C19.1643 7.99976 19.5001 7.66397 19.5001 7.24975C19.5001 6.83554 19.1643 6.49975 18.7501 6.49975L5.75007 6.49975C5.55034 6.49704 5.35799 6.57518 5.21674 6.71643C5.0755 6.85767 4.99735 7.05002 5.00007 7.24975Z" fill="#FF0000"/>
</svg>
