<svg width="14" height="15" viewBox="0 0 14 15" fill="000000" xmlns="http://www.w3.org/2000/svg">
<path fill-rule="evenodd" clip-rule="evenodd" d="M5.11 0.510002L12.36 4.7C13.2852 5.2367 13.8547 6.2254 13.8547 7.295C13.8547 8.3646 13.2852 9.35331 12.36 9.89L5.11 14.08C4.1815 14.6161 3.0375 14.6159 2.10917 14.0795C1.18084 13.5432 0.609315 12.5521 0.610001 11.48V3.11C0.609315 2.03786 1.18084 1.04685 2.10917 0.510483C3.0375 -0.0258851 4.1815 -0.0260684 5.11 0.510002ZM4.21 12.52L11.46 8.34C11.8331 8.12704 12.0624 7.72955 12.06 7.3C12.0639 6.86744 11.8346 6.46627 11.46 6.25L4.21 2.07C4.02867 1.96101 3.82156 1.90232 3.61 1.9C2.94174 1.9 2.4 2.44174 2.4 3.11V11.48C2.4 11.8009 2.52749 12.1087 2.75441 12.3356C2.98132 12.5625 3.28909 12.69 3.61 12.69C3.82156 12.6877 4.02867 12.629 4.21 12.52Z" fill="#000000"/>
</svg>
